HIERARCHY
ROOT Hips
{
	OFFSET -0.001795 -0.223333 0.028219
	CHANNELS 6 Xposition Yposition Zposition Zrotation Yrotation Xrotation 
	JOINT LeftUpLeg
	{
		OFFSET 0.069520 -0.091406 -0.006815
		CHANNELS 3 Zrotation Yrotation Xrotation
		JOINT LeftLeg
		{
			OFFSET 0.034277 -0.375199 -0.004496
			CHANNELS 3 Zrotation Yrotation Xrotation
			JOINT LeftFoot
			{
				OFFSET -0.013596 -0.397961 -0.043693
				CHANNELS 3 Zrotation Yrotation Xrotation
				JOINT LeftToe
				{
					OFFSET 0.026358 -0.055791 0.119288
					CHANNELS 3 Zrotation Yrotation Xrotation
					End Site
					{
						OFFSET 0.000000 0.000000 0.000000
					}
				}
			}
		}
	}
	JOINT RightUpLeg
	{
		OFFSET -0.067670 -0.090522 -0.004320
		CHANNELS 3 Zrotation Yrotation Xrotation
		JOINT RightLeg
		{
			OFFSET -0.038290 -0.382569 -0.008850
			CHANNELS 3 Zrotation Yrotation Xrotation
			JOINT RightFoot
			{
				OFFSET 0.015774 -0.398415 -0.042312
				CHANNELS 3 Zrotation Yrotation Xrotation
				JOINT RightToe
				{
					OFFSET -0.025372 -0.048144 0.123348
					CHANNELS 3 Zrotation Yrotation Xrotation
					End Site
					{
						OFFSET 0.000000 0.000000 0.000000
					}
				}
			}
		}
	}
	JOINT Spine
	{
		OFFSET -0.002533 0.108963 -0.026696
		CHANNELS 3 Zrotation Yrotation Xrotation
		JOINT Spine1
		{
			OFFSET 0.005487 0.135180 0.001092
			CHANNELS 3 Zrotation Yrotation Xrotation
			JOINT Spine2
			{
				OFFSET 0.001457 0.052922 0.025425
				CHANNELS 3 Zrotation Yrotation Xrotation
				JOINT Neck
				{
					OFFSET -0.002778 0.213870 -0.042857
					CHANNELS 3 Zrotation Yrotation Xrotation
					JOINT Head
					{
						OFFSET 0.005152 0.064970 0.051349
						CHANNELS 3 Zrotation Yrotation Xrotation
						End Site
						{
							OFFSET 0.000000 0.000000 0.000000
						}
					}
				}
				JOINT LeftShoulder
				{
					OFFSET 0.078845 0.121749 -0.034090
					CHANNELS 3 Zrotation Yrotation Xrotation
					JOINT LeftArm
					{
						OFFSET 0.090977 0.030469 -0.008868
						CHANNELS 3 Zrotation Yrotation Xrotation
						JOINT LeftForeArm
						{
							OFFSET 0.259612 -0.012772 -0.027456
							CHANNELS 3 Zrotation Yrotation Xrotation
							JOINT LeftHand
							{
								OFFSET 0.249234 0.008986 -0.001171
								CHANNELS 3 Zrotation Yrotation Xrotation
								End Site
								{
									OFFSET 0.000000 0.000000 0.000000
								}
							}
						}
					}
				}
				JOINT RightShoulder
				{
					OFFSET -0.081759 0.118833 -0.038615
					CHANNELS 3 Zrotation Yrotation Xrotation
					JOINT RightArm
					{
						OFFSET -0.096012 0.032551 -0.009143
						CHANNELS 3 Zrotation Yrotation Xrotation
						JOINT RightForeArm
						{
							OFFSET -0.253742 -0.013329 -0.021401
							CHANNELS 3 Zrotation Yrotation Xrotation
							JOINT RightHand
							{
								OFFSET -0.255298 0.007772 -0.005559
								CHANNELS 3 Zrotation Yrotation Xrotation
								End Site
								{
									OFFSET 0.000000 0.000000 0.000000
								}
							}
						}
					}
				}
			}
		}
	}
}
MOTION
Frames: 15
Frame Time: 0.050000
0.000000 0.941886 0.000000 -1.982059 -0.444268 -0.135629 0.160775 0.311748 3.484271 1.453915 -0.174495 0.298193 -1.739434 -1.718092 3.906834 0.000000 0.000000 0.000000 3.243155 0.439808 -3.997955 -2.242936 0.622027 6.387153 5.024397 8.608504 5.793456 0.000000 0.000000 0.000000 4.663648 -0.489564 5.539521 -1.299012 0.601993 1.809989 -2.158152 2.210248 3.885326 7.383023 -5.182607 -4.212695 0.000000 0.000000 0.000000 -24.537549 -2.956618 -1.536927 -47.746170 -5.573173 -3.239273 -7.033108 -22.636582 2.140921 0.000000 0.000000 0.000000 23.163056 -2.853719 -3.169488 53.119485 4.912950 -3.140724 6.423245 23.370758 2.101632 0.000000 0.000000 0.000000 
-0.002013 0.941473 0.002332 -2.523419 -0.986586 0.337822 1.268467 0.275771 3.594615 0.655242 -0.057224 -0.394344 -1.520353 -1.365555 3.796182 0.000000 0.000000 0.000000 3.530200 0.449611 -4.099837 -1.535077 0.479191 5.856959 5.347065 9.129351 6.046080 0.000000 0.000000 0.000000 5.075390 -0.440526 4.605647 -1.191680 0.535627 3.157163 -2.815786 3.017014 3.085751 7.892158 -5.728482 -3.194463 0.000000 0.000000 0.000000 -23.514846 -3.058434 -1.614900 -49.181399 -5.504104 -3.251913 -5.253581 -23.538143 1.819780 0.000000 0.000000 0.000000 22.988244 -3.251100 -3.210695 53.861031 4.261005 -3.407685 6.108647 25.082437 2.244967 0.000000 0.000000 0.000000 
-0.003753 0.940784 0.004317 -2.240059 -1.293779 0.355630 0.873893 0.292185 3.565370 0.923587 -0.100008 -0.076316 -1.321404 -1.078022 3.600528 0.000000 0.000000 0.000000 3.604077 0.418448 -3.875925 -2.055537 0.548367 5.639138 5.345298 9.427770 5.584020 0.000000 0.000000 0.000000 5.381079 -0.449505 4.548083 -1.311967 0.614350 1.697967 -3.334114 2.874614 4.386418 7.237984 -5.400164 -2.533875 0.000000 0.000000 0.000000 -23.440874 -3.350029 -1.308797 -48.834976 -5.507951 -3.369915 -5.651838 -22.124017 1.813175 0.000000 0.000000 0.000000 23.734465 -3.175265 -3.267694 53.090093 4.327606 -3.472478 6.890206 24.951373 2.393590 0.000000 0.000000 0.000000 
-0.005520 0.940617 0.006270 -2.497511 -1.571229 0.005852 1.285718 0.332127 4.230529 0.851315 -0.085250 -0.252671 -1.200061 -0.897702 3.490653 0.000000 0.000000 0.000000 3.786622 0.325396 -3.155262 -1.711594 0.473788 5.253036 5.523747 9.753391 5.671314 0.000000 0.000000 0.000000 5.286973 -0.454296 4.736561 -1.300402 0.605733 2.376577 -3.115109 3.047510 3.862969 7.402064 -5.555313 -2.329667 0.000000 0.000000 0.000000 -23.729577 -2.805057 -1.692517 -48.590989 -5.265819 -3.390733 -5.899148 -22.541570 1.886184 0.000000 0.000000 0.000000 23.823340 -3.544867 -3.507244 52.430785 4.387682 -3.368085 7.546838 24.865758 2.512427 0.000000 0.000000 0.000000 
-0.006951 0.941061 0.007928 -2.468405 -1.482740 -0.093759 1.263635 0.349796 4.436683 1.030546 -0.104600 -0.258261 -1.271024 -0.957382 3.660214 0.000000 0.000000 0.000000 3.615310 0.247635 -2.560539 -1.303668 0.376002 4.579127 5.601388 9.764683 5.908246 0.000000 0.000000 0.000000 5.221480 -0.456970 4.823079 -1.201965 0.554505 2.455690 -3.207347 3.097652 3.724193 7.549690 -5.536319 -2.958521 0.000000 0.000000 0.000000 -23.920671 -3.078231 -1.603105 -48.006125 -5.212147 -3.336550 -6.404489 -21.990868 1.929808 0.000000 0.000000 0.000000 23.489556 -3.666441 -3.510912 52.658085 4.112755 -3.485886 7.540198 24.743588 2.502678 0.000000 0.000000 0.000000 
-0.008086 0.941433 0.009248 -2.478189 -1.217234 -0.099451 1.242908 0.373892 4.744460 1.295762 -0.112735 -0.708009 -1.431533 -1.165452 3.871009 0.000000 0.000000 0.000000 3.821960 0.184900 -2.082312 -1.501628 0.367639 3.909796 5.553021 9.574671 6.047481 0.000000 0.000000 0.000000 5.021590 -0.458010 4.945433 -0.944359 0.429882 1.797120 -3.314709 3.031635 4.046556 7.566332 -5.645450 -2.537134 0.000000 0.000000 0.000000 -24.059703 -3.024131 -1.662657 -47.671167 -5.086273 -3.378073 -6.637371 -22.009984 1.977101 0.000000 0.000000 0.000000 23.574162 -3.544782 -3.416542 52.152494 3.803006 -3.624957 7.192696 24.738102 2.436153 0.000000 0.000000 0.000000 
-0.008810 0.941917 0.010057 -2.364638 -1.142810 -0.023169 1.323625 0.377430 4.848031 1.040468 -0.073976 -0.979901 -1.558261 -1.270979 4.175918 0.000000 0.000000 0.000000 3.718591 0.142503 -1.761916 -1.460032 0.327458 3.275462 5.607075 9.546923 6.264973 0.000000 0.000000 0.000000 4.813203 -0.435949 4.786902 -1.051114 0.485612 1.557921 -3.361533 3.096786 4.084878 7.766296 -5.603711 -3.489331 0.000000 0.000000 0.000000 -24.377348 -2.981050 -1.762692 -47.457670 -4.855904 -3.435482 -6.224344 -21.698309 1.866432 0.000000 0.000000 0.000000 23.612030 -3.567994 -3.398743 52.050592 3.191479 -3.889937 6.969945 24.366673 2.355432 0.000000 0.000000 0.000000 
-0.009339 0.942380 0.010427 -2.195813 -0.641216 0.060548 1.260238 0.361649 4.665191 1.013079 -0.073030 -0.911752 -1.826745 -1.670167 4.387750 0.000000 0.000000 0.000000 3.685422 0.142373 -1.742571 -1.606385 0.340885 3.158165 5.405080 9.115063 6.290791 0.000000 0.000000 0.000000 4.598444 -0.426528 4.772562 -1.014794 0.470767 1.135140 -3.547648 3.123793 4.246845 8.058057 -5.744166 -3.873352 0.000000 0.000000 0.000000 -24.523894 -3.045597 -1.842351 -47.159955 -4.884335 -3.377546 -6.162572 -21.667210 1.840810 0.000000 0.000000 0.000000 23.604598 -3.666967 -3.357983 51.846511 2.889017 -4.037391 6.343559 23.684709 2.174734 0.000000 0.000000 0.000000 
-0.009635 0.942556 0.010524 -2.167000 -0.168503 0.052366 1.453333 0.349371 4.687775 0.775561 -0.042657 -1.039231 -2.083766 -2.089978 4.500146 0.000000 0.000000 0.000000 3.690659 0.140104 -1.703473 -1.574239 0.336979 3.158115 5.211358 8.721664 6.288034 0.000000 0.000000 0.000000 4.474800 -0.410170 4.633059 -1.036999 0.481389 1.016237 -3.638661 3.122193 4.406099 8.202242 -5.697335 -4.604314 0.000000 0.000000 0.000000 -24.476164 -2.971736 -1.956940 -47.314422 -5.111774 -3.296527 -5.681622 -21.309920 1.713226 0.000000 0.000000 0.000000 23.656872 -3.849512 -3.389821 51.921105 2.457195 -4.257171 5.343317 22.861861 1.915570 0.000000 0.000000 0.000000 
-0.009979 0.942955 0.010511 -2.075167 0.008105 0.058941 1.498755 0.355287 4.813488 0.607575 -0.014118 -1.328969 -2.244429 -2.263478 4.762349 0.000000 0.000000 0.000000 3.786788 0.103594 -1.429247 -1.871065 0.349050 2.661373 5.181653 8.572861 6.433032 0.000000 0.000000 0.000000 4.409436 -0.391634 4.436906 -1.278842 0.601465 0.873256 -3.678438 3.203265 4.644117 8.302628 -5.709235 -4.911938 0.000000 0.000000 0.000000 -24.494695 -3.083112 -1.942996 -47.295308 -5.256446 -3.243072 -5.342232 -21.141160 1.633079 0.000000 0.000000 0.000000 23.752881 -4.103926 -3.492482 51.959528 2.189278 -4.406320 4.793440 22.196841 1.763088 0.000000 0.000000 0.000000 
-0.010277 0.943202 0.010490 -2.092026 0.182311 -0.006648 1.516829 0.364848 4.968964 0.692972 -0.014372 -1.524723 -2.351045 -2.401314 4.877841 0.000000 0.000000 0.000000 3.827005 0.070733 -1.175052 -1.858085 0.329884 2.342589 5.160376 8.446993 6.573830 0.000000 0.000000 0.000000 4.384362 -0.387051 4.402104 -1.404605 0.662344 0.889213 -3.689406 3.167926 4.771653 8.413171 -5.753464 -5.111959 0.000000 0.000000 0.000000 -24.444986 -3.145902 -1.913362 -47.428953 -5.554869 -3.147042 -4.924063 -20.950756 1.541461 0.000000 0.000000 0.000000 23.863766 -4.222249 -3.553300 52.103138 2.289927 -4.393515 4.140465 21.697652 1.608336 0.000000 0.000000 0.000000 
-0.010680 0.943547 0.010447 -1.997572 0.436241 0.043742 1.425730 0.375287 5.067522 0.785046 -0.008531 -1.872453 -2.525187 -2.601559 5.117114 0.000000 0.000000 0.000000 3.858750 0.079836 -1.238107 -2.017861 0.352530 2.373355 5.053557 8.210362 6.604991 0.000000 0.000000 0.000000 4.360811 -0.377558 4.284576 -1.359174 0.638593 0.922492 -3.850758 3.018047 4.667782 8.554751 -5.826159 -5.247755 0.000000 0.000000 0.000000 -24.312431 -3.118631 -1.919293 -47.580469 -5.542469 -3.154649 -4.844068 -21.085689 1.535522 0.000000 0.000000 0.000000 23.884580 -4.370306 -3.646951 52.316939 2.320723 -4.380673 3.459120 21.524294 1.477383 0.000000 0.000000 0.000000 
-0.011193 0.944094 0.010408 -1.970712 0.399123 0.126402 1.314823 0.386325 5.123430 0.981969 -0.015236 -2.142683 -2.565677 -2.546678 5.386502 0.000000 0.000000 0.000000 3.834336 0.093380 -1.344372 -1.972441 0.347196 2.384933 5.117127 8.221329 6.798326 0.000000 0.000000 0.000000 4.396211 -0.377282 4.246177 -1.303027 0.609253 1.041248 -3.952044 2.927597 4.344689 8.412433 -5.708251 -5.243734 0.000000 0.000000 0.000000 -24.228632 -3.211683 -1.841493 -47.654212 -5.314311 -3.224437 -4.901813 -21.379358 1.567101 0.000000 0.000000 0.000000 23.792755 -4.593000 -3.807621 52.518792 2.331803 -4.346779 3.555393 21.858937 1.516811 0.000000 0.000000 0.000000 
-0.011803 0.944380 0.010392 -1.987265 0.231486 0.311822 1.344521 0.370398 4.932004 0.984444 -0.016142 -2.133576 -2.504276 -2.387248 5.495628 0.000000 0.000000 0.000000 3.901918 0.128278 -1.630228 -2.008499 0.358358 2.510150 5.201756 8.326443 6.899097 0.000000 0.000000 0.000000 4.490467 -0.361465 3.963546 -1.284798 0.601588 0.975781 -4.076572 2.788636 4.490954 8.343083 -5.639696 -5.373858 0.000000 0.000000 0.000000 -24.196475 -3.086326 -1.838207 -47.666916 -5.271918 -3.272450 -5.013684 -21.423168 1.600172 0.000000 0.000000 0.000000 23.982521 -4.701085 -3.950178 52.591904 2.446235 -4.305031 3.398890 22.233108 1.514699 0.000000 0.000000 0.000000 
-0.012408 0.944740 0.010431 -1.949511 -0.068358 0.550831 1.183897 0.368956 4.776327 1.183914 -0.029182 -2.259472 -2.392628 -2.106680 5.679938 0.000000 0.000000 0.000000 3.785993 0.166154 -1.935877 -1.844423 0.339115 2.557257 5.368759 8.555053 7.069390 0.000000 0.000000 0.000000 4.656687 -0.345591 3.640934 -1.352398 0.636238 0.909848 -4.029177 2.854526 4.648547 8.271137 -5.613974 -5.278206 0.000000 0.000000 0.000000 -24.187927 -3.060573 -1.809188 -47.740709 -5.103719 -3.366587 -5.399193 -21.864668 1.712448 0.000000 0.000000 0.000000 23.766323 -4.869262 -4.055382 52.904597 2.787215 -4.181056 3.507799 23.092674 1.604368 0.000000 0.000000 0.000000 
